<svg id="Group_1" data-name="Group 1" xmlns="http://www.w3.org/2000/svg" width="512" height="512" viewBox="0 0 512 512">
  <rect id="Rectangle_1" data-name="Rectangle 1" width="512" height="512" fill="#87cefa"/>
  <path id="Path_1" data-name="Path 1" d="M85.142-86.334Q97.28-74.373,97.28-53.615a53.565,53.565,0,0,1-2.023,15.48,44.455,44.455,0,0,1-5.189,11.522,34.955,34.955,0,0,1-7.036,8,45.136,45.136,0,0,1-7.564,5.1,51.389,51.389,0,0,1-7.828,3.342,50.618,50.618,0,0,1-6.773,1.759,39.872,39.872,0,0,1-4.925.616Q54.006-7.7,53.83-7.7H48.553a4.718,4.718,0,0,1-3.43-1.5,4.718,4.718,0,0,1-1.5-3.43,5.126,5.126,0,0,1,1.5-3.782,4.718,4.718,0,0,1,3.43-1.5H53.83l1.583-.088a32.335,32.335,0,0,0,3.958-.528q2.375-.44,5.453-1.319a29.684,29.684,0,0,0,6.245-2.639Q87.077-31.1,87.077-53.615q0-16.36-8.971-25.683a36.681,36.681,0,0,0-15.48-8.444,32.568,32.568,0,0,0-6.157-.967Q54.006-88.8,53.83-88.8H13.723v70.892H30.962a4.914,4.914,0,0,1,3.606,1.5,5.126,5.126,0,0,1,1.5,3.782,4.718,4.718,0,0,1-1.5,3.43,4.915,4.915,0,0,1-3.606,1.5H13.723v35.71a4.718,4.718,0,0,1-1.5,3.43,4.915,4.915,0,0,1-3.606,1.5,4.631,4.631,0,0,1-3.518-1.5A4.862,4.862,0,0,1,3.7,28.007V-94.075A4.862,4.862,0,0,1,5.1-97.5,4.631,4.631,0,0,1,8.621-99H53.83q.352,0,3.518.264a50.024,50.024,0,0,1,7.74,1.407,53.829,53.829,0,0,1,9.939,3.694A36.532,36.532,0,0,1,85.142-86.334ZM208.631,32.933a5.536,5.536,0,0,1-2.9-.792,4.24,4.24,0,0,1-1.847-2.2L170.811-51.5a4.477,4.477,0,0,1,0-3.87,4.8,4.8,0,0,1,2.815-2.639,4.5,4.5,0,0,1,3.782-.088,5.166,5.166,0,0,1,2.727,2.727l27.09,67.022,26.562-106.6a5.615,5.615,0,0,1,2.463-3.166,5.525,5.525,0,0,1,3.87-.7,4.874,4.874,0,0,1,2.99,2.287,5.279,5.279,0,0,1,.528,4.046L213.557,29.238q-.88,3.342-4.75,3.694Zm-66.846,0h-.528a4.635,4.635,0,0,1-4.4-3.694L106.428-92.491a5.048,5.048,0,0,1,.616-4.046,5.253,5.253,0,0,1,3.254-2.287,5.172,5.172,0,0,1,3.694.7,4.92,4.92,0,0,1,2.287,3.166L142.841,11.823l18.822-45.385a5.13,5.13,0,0,1,2.815-2.727,4.693,4.693,0,0,1,3.87.088,4.5,4.5,0,0,1,2.727,2.639,5.2,5.2,0,0,1,.088,3.87L146.183,29.942a4.361,4.361,0,0,1-1.759,2.2A4.792,4.792,0,0,1,141.785,32.933ZM363.256,25.9a4.477,4.477,0,0,1,0,3.87,5.494,5.494,0,0,1-2.815,2.815,4.5,4.5,0,0,1-3.782.088,5.166,5.166,0,0,1-2.727-2.727L308.724-80.705,263.163,29.942a5.331,5.331,0,0,1-4.75,2.99,4.387,4.387,0,0,1-1.935-.352,5.494,5.494,0,0,1-2.815-2.815,4.477,4.477,0,0,1,0-3.87L304.15-96.01A4.538,4.538,0,0,1,308.724-99a4.538,4.538,0,0,1,4.574,2.99ZM326.491-2.6H290.605A4.914,4.914,0,0,1,287-4.1,4.914,4.914,0,0,1,285.5-7.7a4.914,4.914,0,0,1,1.5-3.606,4.914,4.914,0,0,1,3.606-1.5h35.886a4.914,4.914,0,0,1,3.606,1.5,4.915,4.915,0,0,1,1.5,3.606A4.914,4.914,0,0,1,330.1-4.1,4.914,4.914,0,0,1,326.491-2.6Z" transform="translate(72.304 288.978)" fill="#093650" stroke="#08354e" stroke-width="4"/>
</svg>
