<svg xmlns="http://www.w3.org/2000/svg" width="512" height="512" viewBox="0 0 512 512">
  <rect width="512" height="512" rx="25" fill="#87cefa" />
  <path
    d="M99.823-84.051q14.326,14.118,14.326,38.617a63.22,63.22,0,0,1-2.388,18.27,52.468,52.468,0,0,1-6.125,13.6,41.256,41.256,0,0,1-8.3,9.447A53.272,53.272,0,0,1,88.4,1.9a60.651,60.651,0,0,1-9.239,3.945,59.742,59.742,0,0,1-7.993,2.076,47.059,47.059,0,0,1-5.813.727q-2.284.1-2.491.1H56.639A5.568,5.568,0,0,1,52.59,6.989a5.568,5.568,0,0,1-1.765-4.049A6.05,6.05,0,0,1,52.59-1.523a5.568,5.568,0,0,1,4.049-1.765h6.229l1.869-.1a38.164,38.164,0,0,0,4.671-.623q2.8-.519,6.436-1.557a35.034,35.034,0,0,0,7.37-3.114q18.893-10.173,18.893-36.749,0-19.309-10.589-30.312a43.292,43.292,0,0,0-18.27-9.966,38.438,38.438,0,0,0-7.267-1.142q-2.907-.1-3.114-.1H15.53v83.67H35.877a5.8,5.8,0,0,1,4.256,1.765A6.05,6.05,0,0,1,41.9,2.941a5.568,5.568,0,0,1-1.765,4.049,5.8,5.8,0,0,1-4.256,1.765H15.53V50.9a5.568,5.568,0,0,1-1.765,4.049,5.8,5.8,0,0,1-4.256,1.765,5.466,5.466,0,0,1-4.152-1.765A5.738,5.738,0,0,1,3.7,50.9V-93.187a5.738,5.738,0,0,1,1.661-4.049A5.466,5.466,0,0,1,9.509-99H62.867q.415,0,4.152.311a59.041,59.041,0,0,1,9.135,1.661,63.532,63.532,0,0,1,11.73,4.36A43.117,43.117,0,0,1,99.823-84.051ZM245.572,56.714a6.534,6.534,0,0,1-3.426-.934,5,5,0,0,1-2.18-2.6L200.934-42.943a5.284,5.284,0,0,1,0-4.568,5.66,5.66,0,0,1,3.322-3.114,5.306,5.306,0,0,1,4.464-.1,6.1,6.1,0,0,1,3.218,3.218l31.973,79.1,31.35-125.817a6.627,6.627,0,0,1,2.907-3.737,6.521,6.521,0,0,1,4.568-.83,5.753,5.753,0,0,1,3.529,2.7,6.231,6.231,0,0,1,.623,4.775l-35.5,143.672q-1.038,3.945-5.606,4.36Zm-78.9,0h-.623a5.47,5.47,0,0,1-5.191-4.36L124.945-91.318a5.958,5.958,0,0,1,.727-4.775,6.2,6.2,0,0,1,3.841-2.7,6.1,6.1,0,0,1,4.36.83,5.807,5.807,0,0,1,2.7,3.737L167.922,31.8l22.215-53.566a6.055,6.055,0,0,1,3.322-3.218,5.539,5.539,0,0,1,4.568.1,5.3,5.3,0,0,1,3.218,3.114,6.136,6.136,0,0,1,.1,4.568L171.867,53.185a5.147,5.147,0,0,1-2.076,2.6A5.656,5.656,0,0,1,166.677,56.714Zm261.392-8.3a5.284,5.284,0,0,1,0,4.568,6.484,6.484,0,0,1-3.322,3.322,5.306,5.306,0,0,1-4.464.1,6.1,6.1,0,0,1-3.218-3.218L363.707-77.408,309.934,53.185a6.292,6.292,0,0,1-5.606,3.53,5.178,5.178,0,0,1-2.284-.415,6.484,6.484,0,0,1-3.322-3.322,5.284,5.284,0,0,1,0-4.568l59.587-143.88a5.356,5.356,0,0,1,5.4-3.53,5.356,5.356,0,0,1,5.4,3.53ZM384.676,14.775H342.322a5.8,5.8,0,0,1-4.256-1.765A5.8,5.8,0,0,1,336.3,8.754,5.8,5.8,0,0,1,338.066,4.5a5.8,5.8,0,0,1,4.256-1.765h42.354A5.8,5.8,0,0,1,388.933,4.5,5.8,5.8,0,0,1,390.7,8.754a5.8,5.8,0,0,1-1.765,4.256A5.8,5.8,0,0,1,384.676,14.775Z"
    transform="translate(39.558 277.527)" fill="#093650" stroke="#08354e" stroke-width="4" /></svg>